<mxfile host="Electron" agent="Mozilla/5.0 (Windows NT 10.0; Win64; x64) AppleWebKit/537.36 (KHTML, like Gecko) draw.io/26.1.1 Chrome/132.0.6834.210 Electron/34.3.3 Safari/537.36" version="26.1.1">
  <diagram name="페이지-1" id="7tjHYmT1S9hosk4DF0di">
    <mxGraphModel dx="989" dy="577" grid="1" gridSize="10" guides="1" tooltips="1" connect="1" arrows="1" fold="1" page="1" pageScale="1" pageWidth="827" pageHeight="1169" math="0" shadow="0">
      <root>
        <mxCell id="0" />
        <mxCell id="1" parent="0" />
        <mxCell id="cJt8YPXri0qT26U2fX88-3" value="" style="edgeStyle=orthogonalEdgeStyle;rounded=0;orthogonalLoop=1;jettySize=auto;html=1;" edge="1" parent="1" source="cJt8YPXri0qT26U2fX88-1" target="cJt8YPXri0qT26U2fX88-2">
          <mxGeometry relative="1" as="geometry" />
        </mxCell>
        <mxCell id="cJt8YPXri0qT26U2fX88-1" value="로그인 화면&lt;div&gt;(닉네임 결정)&lt;/div&gt;" style="rounded=0;whiteSpace=wrap;html=1;" vertex="1" parent="1">
          <mxGeometry x="10" y="270" width="120" height="60" as="geometry" />
        </mxCell>
        <mxCell id="cJt8YPXri0qT26U2fX88-5" value="" style="edgeStyle=orthogonalEdgeStyle;rounded=0;orthogonalLoop=1;jettySize=auto;html=1;" edge="1" parent="1" source="cJt8YPXri0qT26U2fX88-2" target="cJt8YPXri0qT26U2fX88-4">
          <mxGeometry relative="1" as="geometry" />
        </mxCell>
        <mxCell id="cJt8YPXri0qT26U2fX88-2" value="Host가 게임 시작" style="rounded=0;whiteSpace=wrap;html=1;" vertex="1" parent="1">
          <mxGeometry x="210" y="270" width="120" height="60" as="geometry" />
        </mxCell>
        <mxCell id="cJt8YPXri0qT26U2fX88-8" value="" style="edgeStyle=orthogonalEdgeStyle;rounded=0;orthogonalLoop=1;jettySize=auto;html=1;" edge="1" parent="1" source="cJt8YPXri0qT26U2fX88-4" target="cJt8YPXri0qT26U2fX88-7">
          <mxGeometry relative="1" as="geometry" />
        </mxCell>
        <mxCell id="cJt8YPXri0qT26U2fX88-4" value="숫자 야구 게임 진행" style="rounded=0;whiteSpace=wrap;html=1;" vertex="1" parent="1">
          <mxGeometry x="414" y="270" width="120" height="60" as="geometry" />
        </mxCell>
        <mxCell id="cJt8YPXri0qT26U2fX88-6" style="edgeStyle=orthogonalEdgeStyle;rounded=0;orthogonalLoop=1;jettySize=auto;html=1;entryX=0.392;entryY=-0.017;entryDx=0;entryDy=0;entryPerimeter=0;exitX=0.544;exitY=-0.01;exitDx=0;exitDy=0;exitPerimeter=0;" edge="1" parent="1" source="cJt8YPXri0qT26U2fX88-7" target="cJt8YPXri0qT26U2fX88-2">
          <mxGeometry relative="1" as="geometry">
            <mxPoint x="470" y="260" as="sourcePoint" />
          </mxGeometry>
        </mxCell>
        <mxCell id="cJt8YPXri0qT26U2fX88-7" value="승자 결정" style="rounded=0;whiteSpace=wrap;html=1;" vertex="1" parent="1">
          <mxGeometry x="614" y="270" width="120" height="60" as="geometry" />
        </mxCell>
      </root>
    </mxGraphModel>
  </diagram>
</mxfile>
